# xmcd CD database file
#
# Track frame offsets:
#	150
#	20640
#	43457
#	67132
#	74295
#
# Disc length: 1226 seconds
#
# Revision: 0
# Processed by: cddbd v1.5PL3 Copyright (c) Steve Scherf et al.
# Submitted via: CDex 1.51
#
DISCID=4d04c805
DTITLE=S.E.N.S. - The Choice Of Gentleness
DYEAR=1998
DGENRE=New Age
TTITLE0=Aurora
TTITLE1=Suite - The Choice Of Gentleness
TTITLE2=Afternoon Tea
TTITLE3=Recall
TTITLE4=Winds A Time - Reprise
EXTD=YEAR: 1998
EXTT0=
EXTT1=
EXTT2=
EXTT3=
EXTT4=
PLAYORDER=
